<?xml version="1.0" encoding="UTF-8" standalone="no"?>
<svg
   id="svg8"
   version="1.1"
   viewBox="0 0 67.733329 33.866667"
   height="128"
   width="256"
   sodipodi:docname="logo.svg"
   inkscape:version="1.3.2 (091e20ef0f, 2023-11-25, custom)"
   xmlns:inkscape="http://www.inkscape.org/namespaces/inkscape"
   xmlns:sodipodi="http://sodipodi.sourceforge.net/DTD/sodipodi-0.dtd"
   xmlns:xlink="http://www.w3.org/1999/xlink"
   xmlns="http://www.w3.org/2000/svg"
   xmlns:svg="http://www.w3.org/2000/svg"
   xmlns:rdf="http://www.w3.org/1999/02/22-rdf-syntax-ns#"
   xmlns:cc="http://creativecommons.org/ns#"
   xmlns:dc="http://purl.org/dc/elements/1.1/">
  <sodipodi:namedview
     id="namedview1"
     pagecolor="#ffffff"
     bordercolor="#666666"
     borderopacity="1.0"
     inkscape:showpageshadow="2"
     inkscape:pageopacity="0.0"
     inkscape:pagecheckerboard="0"
     inkscape:deskcolor="#d1d1d1"
     inkscape:zoom="3.4916933"
     inkscape:cx="214.36591"
     inkscape:cy="128.7341"
     inkscape:window-width="2558"
     inkscape:window-height="1410"
     inkscape:window-x="2560"
     inkscape:window-y="0"
     inkscape:window-maximized="1"
     inkscape:current-layer="svg8" />
  <defs
     id="defs2">
    <linearGradient
       id="linearGradient3823">
      <stop
         id="stop3819"
         offset="0"
         style="stop-color:#8237c8;stop-opacity:1;" />
      <stop
         id="stop3821"
         offset="1"
         style="stop-color:#eb8646;stop-opacity:1;" />
    </linearGradient>
    <linearGradient
       gradientTransform="matrix(1.5734703,0,0,1.5734703,-25.232262,-91.002862)"
       gradientUnits="userSpaceOnUse"
       y2="116.21745"
       x2="130.09344"
       y1="73.285561"
       x1="36.14024"
       id="linearGradient3825"
       xlink:href="#linearGradient3823" />
  </defs>
  <metadata
     id="metadata5">
    <rdf:RDF>
      <cc:Work
         rdf:about="">
        <dc:format>image/svg+xml</dc:format>
        <dc:type
           rdf:resource="http://purl.org/dc/dcmitype/StillImage" />
      </cc:Work>
    </rdf:RDF>
  </metadata>
  <g
     transform="matrix(0.50000001,0,0,0.50000001,-21.166987,-11.681405)"
     id="layer1"
     style="stroke-width:2">
    <path
       d="m 157.61337,59.89339 c 1.85089,0.01923 3.41928,0.964405 4.70515,2.834769 1.32485,1.948288 1.98726,4.461592 1.98726,7.539898 0,3.429016 -0.7501,6.293 -2.25028,8.591997 -1.50018,2.279487 -3.56539,3.419246 -6.19559,3.419246 -1.26639,0 -2.62045,-0.896202 -4.06219,-2.688636 -0.0779,-1.987278 -0.11691,-7.130763 -0.11691,-15.430511 0,-0.954666 0.3604,-1.753475 1.08129,-2.3964 1.40278,-1.227303 3.01986,-1.850571 4.85126,-1.870363 z M 130.72689,30.718585 c -0.44812,0.428613 -0.42861,0.886463 0.0584,1.373553 1.46124,0.09738 2.67891,0.448124 3.65306,1.052074 0.99364,0.603977 2.04572,1.850881 3.15626,3.740728 l 7.86136,13.209456 c 0.15593,0.2533 0.34101,0.545508 0.55529,0.876737 0.21434,0.331173 0.35074,0.565019 0.4091,0.701386 0.0779,0.116893 0.16559,0.301935 0.26302,0.55529 0.0974,0.253244 0.15562,0.525999 0.17538,0.818274 0.0198,0.272753 0.0294,0.633188 0.0294,1.081311 l -0.17532,28.742287 c -0.009,0.04296 -0.0585,0.179093 -0.0585,0.19873 0.039,0.07789 0.0876,0.155931 0.14617,0.233786 0.15593,0.292209 0.40915,0.4384 0.75983,0.4384 1.11053,-0.974135 1.72426,-1.519689 1.84115,-1.636582 0.52604,-0.603992 1.05207,-0.662431 1.57811,-0.175363 1.38329,1.149499 3.13676,1.72424 5.2604,1.72424 3.15625,0 6.04946,-1.33457 8.67967,-4.003758 2.6302,-2.669156 3.9453,-6.137116 3.9453,-10.40388 0,-3.312109 -1.0326,-6.010507 -3.0978,-8.095189 -2.0457,-2.104159 -4.38367,-3.156232 -7.01385,-3.156232 -2.35744,0 -4.49083,0.857243 -6.40016,2.571753 -0.44812,0.350684 -0.67217,0.272755 -0.67217,-0.233788 l -0.0834,-3.683016 -0.17532,-3.047414 c 0,-1.733975 0.45368,-3.058824 0.96023,-3.974521 l 7.62758,-13.823163 c 0.77933,-1.383291 1.64633,-2.30875 2.60098,-2.776327 0.95467,-0.467636 2.22107,-0.779326 3.79918,-0.93518 0.44812,-0.428613 0.44812,-0.866982 0,-1.315106 -0.44813,0 -1.36381,0.03902 -2.74709,0.116893 -1.36382,0.07787 -2.30872,0.116893 -2.83478,0.116893 -0.46757,0 -1.34433,-0.03902 -2.6302,-0.116893 -1.26639,-0.07787 -2.29898,-0.116893 -3.0978,-0.116893 -0.44812,0.428613 -0.44812,0.866982 0,1.315106 0.75984,0.03902 1.34431,0.107106 1.75348,0.204551 0.42861,0.09745 0.79881,0.253301 1.11052,0.467579 0.33118,0.194824 0.47737,0.487088 0.43835,0.876721 -0.0198,0.389647 -0.1851,0.88648 -0.49682,1.490458 l -7.10153,13.414016 c -0.46759,0.876737 -0.96439,0.837772 -1.49044,-0.116894 l -7.56914,-13.297125 c -0.64294,-1.266403 -0.78905,-2.065183 -0.43834,-2.396401 0.37019,-0.350683 1.43201,-0.565018 3.18546,-0.642942 0.44812,-0.428614 0.44812,-0.886465 0,-1.373553 -0.62346,0 -1.73397,0.04864 -3.33157,0.146128 -1.59761,0.09749 -2.83478,0.146128 -3.71152,0.146128 -0.9157,0 -2.20159,-0.04864 -3.85763,-0.146128 -1.63655,-0.09749 -2.59123,-0.146128 -2.86399,-0.146128 z m -7.2953,36.509732 11.57289,-0.321445 c 0.56502,0 0.83776,-0.253297 0.81828,-0.759839 0,-2.279506 -0.52606,-4.03297 -1.57813,-5.260403 -1.05207,-1.246909 -2.31847,-1.870363 -3.79917,-1.870363 -1.40278,0 -2.80555,0.652681 -4.20832,1.958037 -1.38329,1.305362 -2.31848,3.390039 -2.80555,6.254028 z m 15.81043,10.170109 c 0.64294,0.03902 1.04233,0.350727 1.1982,0.935177 -2.5133,3.312107 -5.84489,4.968153 -9.99476,4.968153 -3.99401,0 -7.00413,-1.207937 -9.03035,-3.623828 -1.79244,-2.065195 -2.68865,-4.899959 -2.68865,-8.504308 0,-4.071936 1.21768,-7.34508 3.65305,-9.819422 2.43537,-2.474331 5.12402,-3.711502 8.06595,-3.711502 3.62383,0 6.18584,0.97415 7.68604,2.922444 1.50018,1.928817 2.25027,4.305741 2.25027,7.130765 0,0.681895 -0.36041,1.02285 -1.08131,1.02285 l -16.04422,0.233786 c 0,3.390042 0.60398,6.059214 1.81192,8.007501 0.83777,1.363805 1.88985,2.396411 3.15624,3.097801 1.28588,0.701374 2.50356,1.052069 3.65306,1.052069 1.51967,0 2.82502,-0.31172 3.91607,-0.935176 1.11054,-0.623456 2.26002,-1.548893 3.44849,-2.776325 z M 117.92963,37.465781 q 0.81435,-2.326693 -0.81434,-3.528825 -1.58991,-1.202125 -4.42074,-1.396016 -0.34904,-0.349042 -0.34904,-0.891899 0,-0.581718 0.34904,-0.930689 1.55114,0.03902 4.61463,0.232715 3.0635,0.155065 4.14928,0.155065 1.04702,0 3.21861,-0.155065 2.21036,-0.193919 3.68394,-0.232715 0.34904,0.349045 0.34904,0.930689 0,0.542907 -0.34904,0.891899 -3.02471,0.155129 -4.92486,1.822583 -1.90013,1.667469 -2.71448,4.032941 L 105.094,81.44042 q -0.62043,1.822582 -2.17158,1.861352 -2.01647,0 -2.67571,-1.938909 l -9.306801,-28.19185 q -0.736824,-2.21037 -1.124562,-2.21037 -0.465373,0 -1.085802,1.977701 L 77.677723,81.362863 q -0.698026,1.900139 -1.977695,1.938909 -0.969456,0 -1.822577,-0.504108 -0.853133,-0.504109 -1.12458,-1.434801 L 58.288553,38.1638 q -1.047012,-3.141042 -2.481819,-4.265622 -1.434794,-1.163347 -4.188054,-1.357231 -0.349043,-0.349045 -0.349043,-0.891906 0,-0.581718 0.349043,-0.930683 1.396023,0.03902 3.645166,0.232715 2.28792,0.155129 3.994163,0.155129 1.783809,0 5.041187,-0.193863 3.296154,-0.193919 4.071724,-0.193919 0.349044,0.349043 0.349044,0.930682 0.03902,0.542907 -0.349044,0.891906 -2.210359,0.11628 -3.257383,1.240897 -1.008239,1.124575 -0.387781,3.141048 l 11.904948,36.60675 0.504112,1.900139 0.775565,-1.900139 10.004816,-26.291714 q 0.155066,-0.426521 0.155066,-1.977689 0,-0.814349 -0.775559,-3.257382 L 86.092587,38.31897 q -0.659235,-2.055257 -2.404263,-3.839056 -1.706241,-1.783804 -4.498279,-1.938911 -0.349043,-0.349044 -0.349043,-0.891905 0,-0.581719 0.349043,-0.930683 1.396016,0.03902 3.955385,0.232715 2.559374,0.155128 4.226838,0.155128 1.706253,0 4.924852,-0.155128 3.218605,-0.193919 4.924852,-0.232715 0.349043,0.349043 0.349043,0.930683 0,0.542907 -0.349043,0.891905 -2.520591,0.232714 -3.955391,1.589907 -1.434805,1.31846 -0.504112,4.18806 l 11.439611,35.365846 0.5429,1.667469 0.58164,-1.667469 z"
       style="font-style:normal;font-variant:normal;font-weight:normal;font-stretch:normal;font-size:10.5833px;line-height:1.25;font-family:'Linux Libertine Display';-inkscape-font-specification:'Linux Libertine Display';letter-spacing:0px;word-spacing:0px;fill:url(#linearGradient3825);fill-opacity:1;stroke:none;stroke-width:0.529168"
       id="path3732" />
  </g>
</svg>
